<?xml version="1.0" encoding="UTF-8"?>
<svg width="195px" height="122px" viewBox="0 0 195 122" version="1.1" xmlns="http://www.w3.org/2000/svg" xmlns:xlink="http://www.w3.org/1999/xlink">
    <title>eik-en-linde-logo-kleur-met-wit</title>
    <g id="Symbols" stroke="none" stroke-width="1" fill="none" fill-rule="evenodd">
        <g id="eik-en-linde-logo-kleur-met-wit" transform="translate(0.000000, 1.000000)" fill-rule="nonzero">
            <g transform="translate(0.000000, -1.000000)">
                <g id="linde" transform="translate(0.582391, 56.014130)" fill="#0073E6">
                    <polygon id="Path" points="-7.10542736e-15 64.7973913 -7.10542736e-15 18.2347826 8.89304348 18.2347826 8.89304348 57.2465217 24.525 57.2465217 24.525 64.7973913"></polygon>
                    <polygon id="Path" points="31.9395652 64.7973913 31.9395652 18.2041304 40.8397826 18.2041304 40.8397826 64.7973913"></polygon>
                    <path d="M91.5945652,64.7973913 L64.0597826,23.2532609 C63.8628261,22.9565217 63.3776087,22.0852174 62.6954348,20.7208696 C62.2102174,19.9473913 62.0204348,19.4621739 61.9219565,19.3643478 C61.5280435,18.5745652 61.3376087,18.1963043 61.0421739,17.1215217 L61.0421739,64.2143478 L49.3676087,64.2143478 L49.3676087,0.000652173913 L63.476087,0.000652173913 L90.4271739,42.221087 C90.5256522,42.4173913 90.813913,42.9104348 91.1093478,43.5854348 C91.3976087,44.2669565 91.5945652,44.6543478 91.6930435,44.8513043 L92.2773913,46.5032609 L92.861087,47.6713043 L92.861087,-7.10542736e-15 L104.437174,-7.10542736e-15 L104.437174,64.7967391 L91.5945652,64.7967391 L91.5945652,64.7973913 Z" id="Path"></path>
                    <path d="M149.423478,57.9508696 C145.125,62.5376087 138.98413,64.7973913 130.591957,64.7973913 L113.390217,64.7973913 L113.390217,18.2497826 L130.667609,18.2497826 C139.477174,18.2497826 144.988696,20.22 149.567609,25.095 C153.585,29.3941304 155.836957,35.3145652 155.836957,41.3791304 C155.837609,47.5884783 153.517174,53.5767391 149.423478,57.9508696 Z M140.887174,28.8319565 C138.423913,26.9980435 134.822609,26.0732609 129.750652,26.0732609 L122.692826,26.0732609 L122.692826,56.966087 L129.750652,56.966087 C140.326304,56.966087 146.247391,51.3932609 146.247391,41.4554348 C146.247391,36.1630435 144.200217,31.2958696 140.887174,28.8319565 Z" id="Shape"></path>
                    <polygon id="Path" points="164.623696 64.7973913 164.623696 18.2497826 192.976957 18.2497826 192.976957 25.7993478 173.508261 25.7993478 173.508261 37.2926087 189.450652 37.2926087 189.450652 44.8356522 173.508261 44.8356522 173.508261 57.2536957 193.886087 57.2536957 193.886087 64.7967391 164.623696 64.7967391"></polygon>
                </g>
                <g id="eik" transform="translate(0.582391, 1.603913)" fill="#CC0000">
                    <polygon id="Path" points="3.55271368e-15 64.9395652 3.55271368e-15 0 39.5582609 0 39.5582609 10.5221739 12.4030435 10.5221739 12.4030435 26.5643478 34.6382609 26.5643478 34.6382609 37.0943478 12.4030435 37.0943478 12.4030435 54.4102174 40.8397826 54.4102174 40.8397826 64.9395652"></polygon>
                    <polygon id="Path" points="95.2036957 46.5854348 79.6773913 24.4193478 79.6773913 46.5854348 70.785 46.5854348 70.785 3.55271368e-14 79.6773913 3.55271368e-14 79.6773913 21.738913 94.286087 3.55271368e-14 104.528478 3.55271368e-14 88.5013043 22.6604348 105.36913 46.586087 95.2036957 46.586087"></polygon>
                    <polygon id="Path" points="49.3682609 46.5854348 49.3682609 3.55271368e-14 58.2606522 3.55271368e-14 58.2606522 46.5854348"></polygon>
                </g>
                <g id="barokensemble" transform="translate(113.478261, 0.782609)" fill="#FFFFFF">
                    <path d="M9.80413043,58.7180435 C8.27282609,58.0391304 7.02913043,57.6876087 6.06717391,57.6876087 C4.77065217,57.6876087 3.93652174,58.2152174 3.93652174,59.0213043 C3.93652174,59.635 4.2926087,60.0073913 5.31586957,60.553913 C7.53,61.7356522 8.97,62.6571739 9.65217391,63.336087 C10.2658696,63.9497826 10.6376087,64.9130435 10.6376087,65.9206522 C10.6376087,68.5026087 8.75804348,70.0104348 5.55847826,70.0104348 C5.11891304,70.0104348 4.67869565,69.966087 4.26913043,69.9236957 C3.23869565,69.7723913 2.76130435,69.6204348 1.24434783,68.9147826 C1.0473913,68.8319565 0.721304348,68.6728261 0.304565217,68.4791304 L1.46413043,65.938913 C2.51804348,66.5108696 2.95043478,66.7273913 3.52630435,66.9478261 C4.24630435,67.2086957 5.03413043,67.3684783 5.60413043,67.3684783 C6.86934783,67.3684783 7.70347826,66.7926087 7.70347826,65.92 C7.70347826,65.3063043 7.3773913,64.8895652 6.42978261,64.3658696 L4.20195652,63.0934783 C1.63891304,61.63 0.85826087,60.6667391 0.85826087,59.0897826 C0.85826087,58.3691304 1.07021739,57.6263043 1.41913043,57.0758696 C1.66173913,56.7054348 2.03282609,56.3304348 2.49521739,56.0030435 C3.54130435,55.2830435 4.44326087,55.041087 6.12652174,55.041087 C7.08913043,55.041087 7.94608696,55.1506522 8.84021739,55.4115217 C9.53804348,55.6319565 9.93195652,55.7832609 10.9023913,56.2456522 L9.80413043,58.7180435 Z" id="Path"></path>
                    <polygon id="Path" points="14.0497826 69.726087 14.0497826 55.2836957 22.8515217 55.2836957 22.8515217 57.6263043 16.8084783 57.6263043 16.8084783 61.1891304 21.7519565 61.1891304 21.7519565 63.5317391 16.8084783 63.5317391 16.8084783 67.3834783 23.1313043 67.3834783 23.1313043 69.726087"></polygon>
                    <path d="M38.9152174,69.726087 L38.9152174,59.1321739 C38.8017391,59.878913 38.778913,59.961087 38.3621739,61.1891304 L35.0641304,69.726087 L32.5852174,69.726087 L29.5676087,61.341087 C29.3028261,60.4886957 29.2415217,60.2721739 29.0217391,59.0447826 L29.0217391,69.7267391 L26.5271739,69.7267391 L26.5271739,55.2843478 L29.8323913,55.2843478 L33.6834783,65.5919565 C33.8582609,66.0073913 33.903913,66.16 33.9645652,66.7091304 C34.0552174,66.0276087 34.0702174,65.9395652 34.2293478,65.5919565 L38.2330435,55.2843478 L41.5382609,55.2843478 L41.5382609,69.7267391 L38.9152174,69.7267391 L38.9152174,69.726087 Z" id="Path"></path>
                    <path d="M51.9097826,69.726087 L46.0265217,69.726087 L46.0265217,55.2836957 L51.2576087,55.2836957 C53.1371739,55.2836957 54.0776087,55.5217391 54.866087,56.2469565 C55.5626087,56.8573913 56.0028261,57.8852174 56.0028261,58.828913 C56.0028261,59.635 55.698913,60.4886957 55.1686957,61.1023913 C54.54,61.8256522 53.9484783,62.0845652 52.8117391,62.1517391 C55.0023913,62.1973913 56.3745652,63.6230435 56.3745652,65.875 C56.3745652,68.3695652 54.7976087,69.726087 51.9097826,69.726087 Z M50.703913,57.4671739 L48.915,57.4671739 L48.915,61.1891304 L50.5526087,61.1891304 C52.1067391,61.1891304 52.9408696,60.5343478 52.9408696,59.308913 C52.9408696,58.15 52.106087,57.4671739 50.703913,57.4671739 Z M50.703913,63.5317391 L48.915,63.5317391 L48.915,67.5126087 L50.703913,67.5126087 C51.5608696,67.5126087 51.9547826,67.4708696 52.3721739,67.255 C52.9858696,66.966087 53.3576087,66.3113043 53.3576087,65.5684783 C53.3569565,64.2563043 52.4171739,63.5317391 50.703913,63.5317391 Z" id="Shape"></path>
                    <polygon id="Path" points="59.6341304 69.726087 59.6341304 55.2836957 62.3941304 55.2836957 62.3941304 67.3834783 68.2995652 67.3834783 68.2995652 69.726087"></polygon>
                    <polygon id="Path" points="71.0204348 69.726087 71.0204348 55.2836957 79.8143478 55.2836957 79.8143478 57.6263043 73.7726087 57.6263043 73.7726087 61.1891304 78.7226087 61.1891304 78.7226087 63.5317391 73.7726087 63.5317391 73.7726087 67.3834783 80.0954348 67.3834783 80.0954348 69.726087"></polygon>
                    <path d="M17.8173913,15.4834783 L11.9419565,15.4834783 L11.9419565,1.08282609 L17.1652174,1.08282609 C19.0376087,1.08282609 19.9773913,1.32152174 20.7658696,2.04217391 C21.4565217,2.6526087 21.8954348,3.67978261 21.8954348,4.61956522 C21.8954348,5.42304348 21.5921739,6.27282609 21.0684783,6.88652174 C20.4313043,7.60652174 19.8404348,7.8673913 18.7108696,7.9326087 C20.8943478,7.97826087 22.2665226,9.39608696 22.2665226,11.6434783 C22.2678261,14.1341304 20.6980435,15.4834783 17.8173913,15.4834783 Z M16.6121739,3.26304348 L14.831087,3.26304348 L14.831087,6.97326087 L16.4615217,6.97326087 C18.0156522,6.97326087 18.8413043,6.31782609 18.8413043,5.0976087 C18.8413043,3.9373913 18.015,3.26304348 16.6121739,3.26304348 Z M16.6121739,9.30804348 L14.831087,9.30804348 L14.831087,13.2771739 L16.6121739,13.2771739 C17.4684783,13.2771739 17.8630435,13.2386957 18.2726087,13.018913 C18.8863043,12.733913 19.2586957,12.0791304 19.2586957,11.3363043 C19.2580435,10.0326087 18.3176087,9.30804348 16.6121739,9.30804348 Z" id="Shape"></path>
                    <path d="M33.6163043,15.4834783 L32.478913,11.9278261 L27.6573913,11.9278261 L26.4828261,15.4834783 L23.5936957,15.4834783 L28.8176087,1.08282609 L31.2808696,1.08282609 L36.4969565,15.4834783 L33.6163043,15.4834783 Z M30.0613043,4.37695652 L28.4008696,9.5923913 L31.736087,9.5923913 L30.0613043,4.37695652 Z" id="Shape"></path>
                    <path d="M46.466087,15.4834783 L43.1758696,9.72217391 L41.7965217,9.72217391 L41.7965217,15.4834783 L39.0443478,15.4834783 L39.0443478,1.08282609 L43.8508696,1.08282609 C45.9508696,1.08282609 46.9056522,1.34434783 47.7547826,2.14782609 C48.5432609,2.86782609 48.9365217,3.91847826 48.9365217,5.27173913 C48.9365217,6.38565217 48.6717391,7.28043478 48.1480435,7.97826087 C47.6028261,8.67543478 47.1019565,8.97804348 45.9052174,9.30804348 L49.4830435,15.4834783 L46.466087,15.4834783 L46.466087,15.4834783 Z M43.5854348,3.41434783 L41.7965217,3.41434783 L41.7965217,7.38673913 L43.5854348,7.38673913 C45.3371739,7.38673913 46.1021739,6.78021739 46.1021739,5.33630435 C46.1021739,3.96021739 45.3743478,3.41434783 43.5854348,3.41434783 Z" id="Shape"></path>
                    <path d="M58.7093478,15.7717391 C54.213913,15.7717391 51.0756522,12.6713043 51.0528261,8.28217391 C51.0528261,3.83173913 54.1532609,0.821956522 58.7093478,0.821956522 C63.2582609,0.821956522 66.3515217,3.83173913 66.3515217,8.28217391 C66.3515217,12.6713043 63.1897826,15.7717391 58.7093478,15.7717391 Z M58.7093478,3.19847826 C55.9878261,3.19847826 53.9791304,5.37804348 53.9791304,8.28152174 C53.9791304,11.2071739 55.9878261,13.3684783 58.7093478,13.3684783 C61.4158696,13.3684783 63.4245654,11.2078261 63.4245654,8.28152174 C63.4252174,5.37804348 61.4165217,3.19847826 58.7093478,3.19847826 Z" id="Shape"></path>
                    <polygon id="Path" points="76.9578261 15.4834783 72.1506522 8.63369565 72.1506522 15.4834783 69.4069565 15.4834783 69.4069565 1.08282609 72.1506522 1.08282609 72.1506522 7.80347826 76.6702174 1.08282609 79.8378261 1.08282609 74.88 8.08391304 80.096087 15.4834783"></polygon>
                    <polygon id="Path" points="36.9443478 47.4067391 36.9443478 22.8823913 51.8869565 22.8823913 51.8869565 26.8619565 41.628913 26.8619565 41.628913 32.916087 50.028913 32.916087 50.028913 36.8930435 41.628913 36.8930435 41.628913 43.435 52.3636957 43.435 52.3636957 47.4067391"></polygon>
                    <path d="M75.191087,47.4067391 L64.676087,31.5393478 C64.6004348,31.4297826 64.4178261,31.0919565 64.1602174,30.5773913 C63.971087,30.2741304 63.8954348,30.0921739 63.8569565,30.0536957 C63.7128261,29.7582609 63.6378261,29.6063043 63.5243478,29.1967391 L63.5243478,47.1876087 L59.066087,47.1876087 L59.066087,22.6586957 L64.4563043,22.6586957 L74.7515217,38.7869565 C74.7821739,38.8632609 74.8956522,39.0445652 75.0091304,39.3106522 C75.1226087,39.5682609 75.191087,39.7195652 75.2295652,39.7880435 L75.45,40.4213043 L75.6769565,40.8686957 L75.6769565,22.6586957 L80.0967391,22.6586957 L80.0967391,47.4067391 L75.191087,47.4067391 Z" id="Path"></path>
                </g>
            </g>
        </g>
    </g>
</svg>